<svg id="Layer_1" data-name="Layer 1" xmlns="http://www.w3.org/2000/svg" viewBox="0 0 449.96 91.07"><defs><style>.cls-1{fill:#fff;}.cls-2{fill:#231f20;}.cls-3{fill:none;stroke:#231f20;stroke-miterlimit:22.93;stroke-width:0.57px;}.cls-4{fill:#38fbf9;}</style></defs><title>logo</title><path class="cls-1" d="M583.35,544.92c-1-4.43-5.77-6.33-10.06-6.26-3.31.07-7,1.2-8.94,3.73a6.5,6.5,0,0,0-1.19,4.58c.35,5.06,5.91,5.7,11.19,6.19,6.75.84,15.13,2.6,17,10.48a17.71,17.71,0,0,1,.35,3.24c0,9.5-9.43,15-18.3,15-7.6,0-16.82-4.5-17.73-13.3l-.07-1.34,7.17-.14.08,1.06v-.28c.49,4.57,6,7,10.62,7,5.28,0,11-3,11-8a8,8,0,0,0-.21-1.69c-.85-3.73-5.91-4.36-10.84-4.85-7.67-.78-16.68-2.47-17.45-12.74v.07a13.32,13.32,0,0,1,2.67-9.36c3.31-4.29,9.22-6.55,14.92-6.55,7.6,0,15.48,3.95,16.75,12.95Z" transform="translate(-306.66 -509.92)"/><path class="cls-1" d="M604.18,581.66V539.37H589.26v-7.18h36.88v7.18H611.29v42.29Z" transform="translate(-306.66 -509.92)"/><path class="cls-1" d="M650.62,567H633c-1.9,4.51-4.36,10.42-5.91,14.5h-7.67l19.77-49.9h5.21l19.78,49.9h-7.6Zm-15-6.68h12.25l-6-17.39Z" transform="translate(-306.66 -509.92)"/><path class="cls-1" d="M702.63,549.85c-2-8-9.57-10.84-15.84-10.84-9.64,0-17.1,7.53-17.1,17.88S677.15,575,686.79,575c6.05,0,12.53-2.81,15.48-10H684.05v-7.11h26.53c-.35,4.16-.7,6.9-1.34,8.52v-.07c-3.38,9.43-13.51,15.48-22.45,15.48-13.79,0-24.21-10.41-24.21-24.91s10.63-25,24.21-25c9.43,0,20.83,4.85,23.44,17.94Z" transform="translate(-306.66 -509.92)"/><path class="cls-1" d="M721.41,574.34h22.87v7.11h-30V532.26h30v7.11h-22.8v13.86h22.31v7.18H721.41Z" transform="translate(-306.66 -509.92)"/><path class="cls-2" d="M357.59,520.92a19.58,19.58,0,0,1,0,13.5,15.23,15.23,0,0,1-8.2,8.7c20.5,3.6,19.3,37.8-3.7,37.8h-31.1V511h28.3A15.07,15.07,0,0,1,357.59,520.92Zm-41.4,21.8h26.7a13.66,13.66,0,0,0,13.3-8.9,17.37,17.37,0,0,0,0-12.3,13.66,13.66,0,0,0-13.3-8.9h-26.7Zm0,36.7h29.5c22.3,0,22.3-35.1,0-35.1h-29.5Z" transform="translate(-306.66 -509.92)"/><path class="cls-2" d="M412.09,557.42h-35.4l-9.5,23.5h-1.7l28.1-71h1.7l28.11,71h-1.7Zm-34.7-1.5h34.1L394.39,512Z" transform="translate(-306.66 -509.92)"/><path class="cls-2" d="M486.3,532.32a33.15,33.15,0,0,0-6.6-9.8,32.14,32.14,0,0,0-46.21,0,33.79,33.79,0,0,0-9.6,23.5,33.43,33.43,0,0,0,9.6,23.5,31.91,31.91,0,0,0,46.21,0,32.67,32.67,0,0,0,6.6-9.7H488a35.08,35.08,0,0,1-7.2,10.9,33.59,33.59,0,0,1-48.41,0,35.38,35.38,0,0,1,0-49.3,33.59,33.59,0,0,1,48.41,0,35.08,35.08,0,0,1,7.2,10.9Z" transform="translate(-306.66 -509.92)"/><path class="cls-2" d="M496.9,511v69.9h-1.5V511Zm2.3,34.1L534,511h2l-35.4,34.8,39.7,35.1H538l-38.8-34.2Z" transform="translate(-306.66 -509.92)"/><rect class="cls-3" x="0.28" y="84.2" width="449.4" height="6.59"/><rect class="cls-4" x="0.28" y="84.2" width="449.39" height="6.59"/></svg>