<svg width="77" height="77" viewBox="0 0 77 77" fill="none" xmlns="http://www.w3.org/2000/svg">
<path fill-rule="evenodd" clip-rule="evenodd" d="M52.638 31.1299C52.6163 31.1765 52.5944 31.223 52.5723 31.2695C66.1948 32.5323 76.7898 42.2085 76.7898 53.9578C76.7898 65.819 65.9922 75.5673 52.1828 76.68L52.019 76.7867H0.000145706V62.2598H24.1518C24.1517 62.2596 24.1517 62.2595 24.1516 62.2594H49.542V62.2584H49.542C55.0143 62.2584 59.4504 58.5419 59.4504 53.9573C59.4504 49.4259 55.1164 45.7425 49.7318 45.6577H24.7712L24.7704 45.6572H24.1512C24.1731 45.6102 24.1952 45.5632 24.2175 45.5163C10.5951 44.2535 0 34.5773 0 22.828C0 10.962 10.8064 1.21058 24.624 0.104485L24.7712 0.00292969H26.807C26.9537 0.00097901 27.1007 0 27.248 0C27.3953 0 27.5423 0.00097901 27.689 0.00292969H76.7901V14.5298H27.004C21.6446 14.6384 17.3397 18.3122 17.3397 22.8284C17.3397 27.413 21.7759 31.1295 27.2481 31.1295H27.2482V31.1299H52.638Z" fill="#86BC2F"/>
</svg>
