<svg width="245" height="102" viewBox="0 0 245 102" fill="none" xmlns="http://www.w3.org/2000/svg">
<style>
.logo-text{
    fill:var(--fill-color,black);
}</style>
<rect x="90.7566" y="1.20898" width="63.4869" height="13.9671" fill="#4B691B"/>
<rect x="90.7566" y="31.6826" width="63.4869" height="13.9671" fill="#4B691B"/>
<rect x="90.7566" y="63.4258" width="63.4869" height="13.9671" fill="#4B691B"/>
<path fill-rule="evenodd" clip-rule="evenodd" d="M198.766 31.7361C198.748 31.7827 198.729 31.8292 198.711 31.8757C210.123 33.1386 219 42.8147 219 54.5641C219 66.4249 209.954 76.1729 198.385 77.2861L198.247 77.3935H154.667V62.8667H174.901C174.901 62.8665 174.901 62.8663 174.9 62.866H196.172L196.172 62.8648C200.756 62.8648 204.473 59.1483 204.473 54.5638C204.473 50.0286 200.836 46.3428 196.32 46.264H175.419L175.419 46.2639H174.9C174.918 46.2168 174.937 46.1697 174.955 46.1228C163.543 44.8599 154.666 35.1837 154.666 23.4344C154.666 11.5684 163.72 1.81697 175.296 0.710923L175.419 0.609487H177.118C177.243 0.607462 177.369 0.606445 177.494 0.606445C177.62 0.606445 177.746 0.607462 177.871 0.609487H219V15.1364H177.268C172.788 15.2565 169.193 18.9257 169.193 23.4344C169.193 28.019 172.91 31.7355 177.494 31.7355H177.495V31.7361H198.766Z" fill="#86BC2F"/>
<path fill-rule="evenodd" clip-rule="evenodd" d="M70.0995 31.7361C70.0813 31.7827 70.0629 31.8292 70.0444 31.8757C81.4571 33.1386 90.3334 42.8147 90.3334 54.5641C90.3334 66.4249 81.2878 76.173 69.7188 77.2861L69.5807 77.3935H26V62.8667H46.2343C46.2342 62.8665 46.2341 62.8663 46.2341 62.866H67.5053V62.8648H67.5054C72.0899 62.8648 75.8065 59.1483 75.8065 54.5638C75.8065 50.0286 72.1696 46.3428 67.6532 46.264H46.7527L46.7527 46.2639H46.2333C46.2517 46.2168 46.2703 46.1697 46.289 46.1228C34.8764 44.8599 26 35.1837 26 23.4344C26 11.5685 35.0534 1.81706 46.6296 0.710938L46.7527 0.609487H48.4515C48.5767 0.607462 48.7022 0.606445 48.828 0.606445C48.9537 0.606445 49.0792 0.607462 49.2044 0.609487H90.3334V15.1364H48.6013C44.1215 15.2565 40.5269 18.9257 40.5269 23.4344C40.5269 28.0189 44.2434 31.7354 48.8279 31.7355V31.7361H70.0995Z" fill="#86BC2F"/>
<path class="logo-text" d="M7.74432 91.1818C7.66761 90.5341 7.35653 90.0312 6.81108 89.6733C6.26563 89.3153 5.59659 89.1364 4.80398 89.1364C4.22443 89.1364 3.71733 89.2301 3.28267 89.4176C2.85227 89.6051 2.51563 89.8629 2.27273 90.1911C2.03409 90.5192 1.91477 90.892 1.91477 91.3097C1.91477 91.6591 1.99787 91.9595 2.16406 92.2109C2.33452 92.4581 2.55185 92.6648 2.81605 92.831C3.08026 92.9929 3.35724 93.1271 3.64702 93.2337C3.93679 93.3359 4.20312 93.419 4.44602 93.483L5.77557 93.8409C6.11648 93.9304 6.49574 94.054 6.91335 94.2116C7.33523 94.3693 7.73793 94.5845 8.12145 94.8572C8.50923 95.1257 8.82884 95.4709 9.08026 95.8928C9.33168 96.3146 9.45739 96.8324 9.45739 97.446C9.45739 98.1534 9.27202 98.7926 8.90128 99.3636C8.5348 99.9347 7.99787 100.388 7.29048 100.725C6.58736 101.062 5.73295 101.23 4.72727 101.23C3.78977 101.23 2.97798 101.079 2.2919 100.776C1.61009 100.474 1.07315 100.052 0.681108 99.5107C0.293324 98.9695 0.0738637 98.3409 0.0227273 97.625H1.65909C1.7017 98.1193 1.8679 98.5284 2.15767 98.8523C2.4517 99.1719 2.82244 99.4105 3.26989 99.5682C3.72159 99.7216 4.20739 99.7983 4.72727 99.7983C5.33239 99.7983 5.87571 99.7003 6.35724 99.5043C6.83878 99.304 7.22017 99.027 7.50142 98.6733C7.78267 98.3153 7.9233 97.8977 7.9233 97.4205C7.9233 96.9858 7.80185 96.6321 7.55895 96.3594C7.31605 96.0866 6.99645 95.8651 6.60014 95.6946C6.20384 95.5241 5.77557 95.375 5.31534 95.2472L3.70455 94.7869C2.68182 94.4929 1.87216 94.0732 1.27557 93.5277C0.678977 92.9822 0.380682 92.2685 0.380682 91.3864C0.380682 90.6534 0.578835 90.0142 0.975142 89.4688C1.37571 88.919 1.91264 88.4929 2.58594 88.1903C3.26349 87.8835 4.01989 87.7301 4.85511 87.7301C5.69886 87.7301 6.44886 87.8814 7.10511 88.1839C7.76136 88.4822 8.28125 88.8913 8.66477 89.4112C9.05256 89.9311 9.2571 90.5213 9.27841 91.1818H7.74432ZM12.0637 101V87.9091H19.9643V89.3153H13.649V93.7386H19.5552V95.1449H13.649V99.5938H20.0666V101H12.0637ZM22.8216 101V87.9091H24.4068V99.5938H30.492V101H22.8216ZM32.9466 101V87.9091H40.8471V89.3153H34.5318V93.7386H40.438V95.1449H34.5318V99.5938H40.9494V101H32.9466ZM54.2385 92H52.6532C52.5595 91.544 52.3954 91.1435 52.161 90.7983C51.9309 90.4531 51.6497 90.1634 51.3173 89.929C50.9892 89.6903 50.6248 89.5114 50.2243 89.392C49.8237 89.2727 49.4061 89.2131 48.9714 89.2131C48.1788 89.2131 47.4608 89.4134 46.8173 89.8139C46.1781 90.2145 45.6689 90.8047 45.2896 91.5845C44.9146 92.3643 44.7271 93.321 44.7271 94.4545C44.7271 95.5881 44.9146 96.5447 45.2896 97.3246C45.6689 98.1044 46.1781 98.6946 46.8173 99.0952C47.4608 99.4957 48.1788 99.696 48.9714 99.696C49.4061 99.696 49.8237 99.6364 50.2243 99.517C50.6248 99.3977 50.9892 99.2209 51.3173 98.9865C51.6497 98.7479 51.9309 98.456 52.161 98.1108C52.3954 97.7614 52.5595 97.3608 52.6532 96.9091H54.2385C54.1191 97.5781 53.9018 98.1768 53.5865 98.7053C53.2711 99.2337 52.8791 99.6832 52.4103 100.054C51.9416 100.42 51.4153 100.7 50.8315 100.891C50.252 101.083 49.6319 101.179 48.9714 101.179C47.8549 101.179 46.862 100.906 45.9927 100.361C45.1234 99.8153 44.4395 99.0398 43.9409 98.0341C43.4423 97.0284 43.193 95.8352 43.193 94.4545C43.193 93.0739 43.4423 91.8807 43.9409 90.875C44.4395 89.8693 45.1234 89.0938 45.9927 88.5483C46.862 88.0028 47.8549 87.7301 48.9714 87.7301C49.6319 87.7301 50.252 87.826 50.8315 88.0178C51.4153 88.2095 51.9416 88.4908 52.4103 88.8615C52.8791 89.228 53.2711 89.6754 53.5865 90.2038C53.9018 90.728 54.1191 91.3267 54.2385 92ZM56.0842 89.3153V87.9091H65.9023V89.3153H61.7859V101H60.2006V89.3153H56.0842ZM73.4114 101V87.9091H81.312V89.3153H74.9966V93.7386H80.9029V95.1449H74.9966V99.5938H81.4142V101H73.4114ZM84.1692 101V87.9091H85.7544V99.5938H91.8397V101H84.1692ZM94.2942 101V87.9091H102.195V89.3153H95.8794V93.7386H101.786V95.1449H95.8794V99.5938H102.297V101H94.2942ZM115.586 92H114.001C113.907 91.544 113.743 91.1435 113.509 90.7983C113.279 90.4531 112.997 90.1634 112.665 89.929C112.337 89.6903 111.972 89.5114 111.572 89.392C111.171 89.2727 110.754 89.2131 110.319 89.2131C109.526 89.2131 108.808 89.4134 108.165 89.8139C107.526 90.2145 107.017 90.8047 106.637 91.5845C106.262 92.3643 106.075 93.321 106.075 94.4545C106.075 95.5881 106.262 96.5447 106.637 97.3246C107.017 98.1044 107.526 98.6946 108.165 99.0952C108.808 99.4957 109.526 99.696 110.319 99.696C110.754 99.696 111.171 99.6364 111.572 99.517C111.972 99.3977 112.337 99.2209 112.665 98.9865C112.997 98.7479 113.279 98.456 113.509 98.1108C113.743 97.7614 113.907 97.3608 114.001 96.9091H115.586C115.467 97.5781 115.249 98.1768 114.934 98.7053C114.619 99.2337 114.227 99.6832 113.758 100.054C113.289 100.42 112.763 100.7 112.179 100.891C111.6 101.083 110.98 101.179 110.319 101.179C109.203 101.179 108.21 100.906 107.34 100.361C106.471 99.8153 105.787 99.0398 105.289 98.0341C104.79 97.0284 104.541 95.8352 104.541 94.4545C104.541 93.0739 104.79 91.8807 105.289 90.875C105.787 89.8693 106.471 89.0938 107.34 88.5483C108.21 88.0028 109.203 87.7301 110.319 87.7301C110.98 87.7301 111.6 87.826 112.179 88.0178C112.763 88.2095 113.289 88.4908 113.758 88.8615C114.227 89.228 114.619 89.6754 114.934 90.2038C115.249 90.728 115.467 91.3267 115.586 92ZM117.432 89.3153V87.9091H127.25V89.3153H123.134V101H121.548V89.3153H117.432ZM129.697 101V87.9091H134.12C135.143 87.9091 135.982 88.0838 136.638 88.4332C137.295 88.7784 137.78 89.2536 138.096 89.8587C138.411 90.4638 138.569 91.152 138.569 91.9233C138.569 92.6946 138.411 93.3786 138.096 93.9751C137.78 94.5717 137.297 95.0405 136.645 95.3814C135.993 95.718 135.16 95.8864 134.145 95.8864H130.566V94.4545H134.094C134.793 94.4545 135.356 94.3523 135.782 94.1477C136.212 93.9432 136.523 93.6534 136.715 93.2784C136.911 92.8991 137.009 92.4474 137.009 91.9233C137.009 91.3991 136.911 90.9411 136.715 90.549C136.519 90.157 136.206 89.8544 135.775 89.6413C135.345 89.424 134.776 89.3153 134.069 89.3153H131.282V101H129.697ZM135.858 95.1193L139.08 101H137.239L134.069 95.1193H135.858ZM142.795 87.9091V101H141.21V87.9091H142.795ZM156.508 92H154.923C154.829 91.544 154.665 91.1435 154.431 90.7983C154.2 90.4531 153.919 90.1634 153.587 89.929C153.259 89.6903 152.894 89.5114 152.494 89.392C152.093 89.2727 151.676 89.2131 151.241 89.2131C150.448 89.2131 149.73 89.4134 149.087 89.8139C148.448 90.2145 147.938 90.8047 147.559 91.5845C147.184 92.3643 146.997 93.321 146.997 94.4545C146.997 95.5881 147.184 96.5447 147.559 97.3246C147.938 98.1044 148.448 98.6946 149.087 99.0952C149.73 99.4957 150.448 99.696 151.241 99.696C151.676 99.696 152.093 99.6364 152.494 99.517C152.894 99.3977 153.259 99.2209 153.587 98.9865C153.919 98.7479 154.2 98.456 154.431 98.1108C154.665 97.7614 154.829 97.3608 154.923 96.9091H156.508C156.389 97.5781 156.171 98.1768 155.856 98.7053C155.541 99.2337 155.149 99.6832 154.68 100.054C154.211 100.42 153.685 100.7 153.101 100.891C152.521 101.083 151.901 101.179 151.241 101.179C150.124 101.179 149.132 100.906 148.262 100.361C147.393 99.8153 146.709 99.0398 146.21 98.0341C145.712 97.0284 145.463 95.8352 145.463 94.4545C145.463 93.0739 145.712 91.8807 146.21 90.875C146.709 89.8693 147.393 89.0938 148.262 88.5483C149.132 88.0028 150.124 87.7301 151.241 87.7301C151.901 87.7301 152.521 87.826 153.101 88.0178C153.685 88.2095 154.211 88.4908 154.68 88.8615C155.149 89.228 155.541 89.6754 155.856 90.2038C156.171 90.728 156.389 91.3267 156.508 92ZM159.607 101H157.945L162.751 87.9091H164.388L169.195 101H167.533L163.621 89.9801H163.518L159.607 101ZM160.22 95.8864H166.919V97.2926H160.22V95.8864ZM171.234 101V87.9091H172.819V99.5938H178.904V101H171.234ZM193.58 91.1818C193.504 90.5341 193.192 90.0312 192.647 89.6733C192.102 89.3153 191.433 89.1364 190.64 89.1364C190.06 89.1364 189.553 89.2301 189.119 89.4176C188.688 89.6051 188.352 89.8629 188.109 90.1911C187.87 90.5192 187.751 90.892 187.751 91.3097C187.751 91.6591 187.834 91.9595 188 92.2109C188.17 92.4581 188.388 92.6648 188.652 92.831C188.916 92.9929 189.193 93.1271 189.483 93.2337C189.773 93.3359 190.039 93.419 190.282 93.483L191.612 93.8409C191.952 93.9304 192.332 94.054 192.749 94.2116C193.171 94.3693 193.574 94.5845 193.957 94.8572C194.345 95.1257 194.665 95.4709 194.916 95.8928C195.168 96.3146 195.293 96.8324 195.293 97.446C195.293 98.1534 195.108 98.7926 194.737 99.3636C194.371 99.9347 193.834 100.388 193.126 100.725C192.423 101.062 191.569 101.23 190.563 101.23C189.626 101.23 188.814 101.079 188.128 100.776C187.446 100.474 186.909 100.052 186.517 99.5107C186.129 98.9695 185.91 98.3409 185.859 97.625H187.495C187.538 98.1193 187.704 98.5284 187.994 98.8523C188.288 99.1719 188.658 99.4105 189.106 99.5682C189.558 99.7216 190.043 99.7983 190.563 99.7983C191.168 99.7983 191.712 99.7003 192.193 99.5043C192.675 99.304 193.056 99.027 193.337 98.6733C193.619 98.3153 193.759 97.8977 193.759 97.4205C193.759 96.9858 193.638 96.6321 193.395 96.3594C193.152 96.0866 192.832 95.8651 192.436 95.6946C192.04 95.5241 191.612 95.375 191.151 95.2472L189.54 94.7869C188.518 94.4929 187.708 94.0732 187.112 93.5277C186.515 92.9822 186.217 92.2685 186.217 91.3864C186.217 90.6534 186.415 90.0142 186.811 89.4688C187.212 88.919 187.749 88.4929 188.422 88.1903C189.099 87.8835 189.856 87.7301 190.691 87.7301C191.535 87.7301 192.285 87.8814 192.941 88.1839C193.597 88.4822 194.117 88.8913 194.501 89.4112C194.888 89.9311 195.093 90.5213 195.114 91.1818H193.58ZM208.945 94.4545C208.945 95.8352 208.696 97.0284 208.197 98.0341C207.699 99.0398 207.015 99.8153 206.145 100.361C205.276 100.906 204.283 101.179 203.167 101.179C202.05 101.179 201.057 100.906 200.188 100.361C199.319 99.8153 198.635 99.0398 198.136 98.0341C197.638 97.0284 197.388 95.8352 197.388 94.4545C197.388 93.0739 197.638 91.8807 198.136 90.875C198.635 89.8693 199.319 89.0938 200.188 88.5483C201.057 88.0028 202.05 87.7301 203.167 87.7301C204.283 87.7301 205.276 88.0028 206.145 88.5483C207.015 89.0938 207.699 89.8693 208.197 90.875C208.696 91.8807 208.945 93.0739 208.945 94.4545ZM207.411 94.4545C207.411 93.321 207.221 92.3643 206.842 91.5845C206.467 90.8047 205.958 90.2145 205.314 89.8139C204.675 89.4134 203.959 89.2131 203.167 89.2131C202.374 89.2131 201.656 89.4134 201.013 89.8139C200.373 90.2145 199.864 90.8047 199.485 91.5845C199.11 92.3643 198.922 93.321 198.922 94.4545C198.922 95.5881 199.11 96.5447 199.485 97.3246C199.864 98.1044 200.373 98.6946 201.013 99.0952C201.656 99.4957 202.374 99.696 203.167 99.696C203.959 99.696 204.675 99.4957 205.314 99.0952C205.958 98.6946 206.467 98.1044 206.842 97.3246C207.221 96.5447 207.411 95.5881 207.411 94.4545ZM211.611 101V87.9091H213.196V99.5938H219.281V101H211.611ZM223.099 101H221.437L226.244 87.9091H227.88L232.687 101H231.025L227.113 89.9801H227.011L223.099 101ZM223.712 95.8864H230.411V97.2926H223.712V95.8864ZM234.726 101V87.9091H239.149C240.172 87.9091 241.011 88.0838 241.668 88.4332C242.324 88.7784 242.81 89.2536 243.125 89.8587C243.44 90.4638 243.598 91.152 243.598 91.9233C243.598 92.6946 243.44 93.3786 243.125 93.9751C242.81 94.5717 242.326 95.0405 241.674 95.3814C241.022 95.718 240.189 95.8864 239.175 95.8864H235.595V94.4545H239.124C239.822 94.4545 240.385 94.3523 240.811 94.1477C241.241 93.9432 241.553 93.6534 241.744 93.2784C241.94 92.8991 242.038 92.4474 242.038 91.9233C242.038 91.3991 241.94 90.9411 241.744 90.549C241.548 90.157 241.235 89.8544 240.805 89.6413C240.374 89.424 239.805 89.3153 239.098 89.3153H236.311V101H234.726ZM240.888 95.1193L244.109 101H242.268L239.098 95.1193H240.888Z" />
</svg>
