<svg width="193" height="78" viewBox="0 0 193 78" fill="none" xmlns="http://www.w3.org/2000/svg">
<rect x="64.7566" y="1.20898" width="63.4869" height="13.9671" fill="#4B691B"/>
<rect x="64.7566" y="31.6826" width="63.4869" height="13.9671" fill="#4B691B"/>
<rect x="64.7566" y="63.4258" width="63.4869" height="13.9671" fill="#4B691B"/>
<path fill-rule="evenodd" clip-rule="evenodd" d="M172.766 31.7361C172.748 31.7827 172.729 31.8292 172.711 31.8757C184.123 33.1386 193 42.8147 193 54.5641C193 66.4249 183.954 76.1729 172.385 77.2861L172.247 77.3935H128.667V62.8667H148.901C148.901 62.8665 148.901 62.8663 148.9 62.866H170.172L170.172 62.8648C174.756 62.8648 178.473 59.1483 178.473 54.5638C178.473 50.0286 174.836 46.3428 170.32 46.264H149.419L149.419 46.2639H148.9C148.918 46.2168 148.937 46.1697 148.955 46.1228C137.543 44.8599 128.666 35.1837 128.666 23.4344C128.666 11.5684 137.72 1.81697 149.296 0.710923L149.419 0.609487H151.118C151.243 0.607462 151.369 0.606445 151.494 0.606445C151.62 0.606445 151.746 0.607462 151.871 0.609487H193V15.1364H151.268C146.788 15.2565 143.193 18.9257 143.193 23.4344C143.193 28.019 146.91 31.7355 151.494 31.7355H151.495V31.7361H172.766Z" fill="#86BC2F"/>
<path fill-rule="evenodd" clip-rule="evenodd" d="M44.0995 31.7361C44.0813 31.7827 44.0629 31.8292 44.0444 31.8757C55.4571 33.1386 64.3334 42.8147 64.3334 54.5641C64.3334 66.4249 55.2878 76.173 43.7188 77.2861L43.5807 77.3935H0V62.8667H20.2343C20.2342 62.8665 20.2341 62.8663 20.2341 62.866H41.5053V62.8648H41.5054C46.0899 62.8648 49.8065 59.1483 49.8065 54.5638C49.8065 50.0286 46.1696 46.3428 41.6532 46.264H20.7527L20.7527 46.2639H20.2333C20.2517 46.2168 20.2703 46.1697 20.289 46.1228C8.87636 44.8599 0 35.1837 0 23.4344C0 11.5685 9.05343 1.81706 20.6296 0.710938L20.7527 0.609487H22.4515C22.5767 0.607462 22.7022 0.606445 22.828 0.606445C22.9537 0.606445 23.0792 0.607462 23.2044 0.609487H64.3334V15.1364H22.6013C18.1215 15.2565 14.5269 18.9257 14.5269 23.4344C14.5269 28.0189 18.2434 31.7354 22.8279 31.7355V31.7361H44.0995Z" fill="#86BC2F"/>
</svg>
